# xmcd CD database file
#
# Track frame offsets:
#	150
#	44051
#	89160
#	101254
#	123104
#	158175
#	187003
#	252396
#	284296
#
# Disc length: 3860 seconds
#
# Revision: 1
# Processed by: cddbd v1.5.2PL0 Copyright (c) Steve Scherf et al.
# Submitted via: CDex 1.50
#
DISCID=7f0f1209
DTITLE=KANKAWA122 - Nucleus Dance
DYEAR=2003
DGENRE=Jazz
TTITLE0=Nucleus Dance
TTITLE1=Limbic System
TTITLE2=Talkin"bout Mr.K
TTITLE3=Benny's Walk
TTITLE4=Organic Swamp
TTITLE5=Step Jam
TTITLE6=Cat Street
TTITLE7=Organic Swamp
TTITLE8=Organic Swamp DJ HIYOCO 1 STEP MIX
EXTD=YEAR: 2003
EXTT0=
EXTT1=
EXTT2=
EXTT3=
EXTT4=
EXTT5=
EXTT6=
EXTT7=
EXTT8=
PLAYORDER=
